<svg width="30" height="30" viewBox="0 0 30 30" fill="none" xmlns="http://www.w3.org/2000/svg">
<g clip-path="url(#clip0_1192_2448)">
<path d="M2.8125 1.875C2.56386 1.875 2.3254 1.97377 2.14959 2.14959C1.97377 2.3254 1.875 2.56386 1.875 2.8125V10.3125C1.875 10.5611 1.77623 10.7996 1.60041 10.9754C1.4246 11.1512 1.18614 11.25 0.9375 11.25C0.68886 11.25 0.450403 11.1512 0.274587 10.9754C0.0987721 10.7996 0 10.5611 0 10.3125V2.8125C0 2.06658 0.296316 1.35121 0.823762 0.823762C1.35121 0.296316 2.06658 0 2.8125 0L10.3125 0C10.5611 0 10.7996 0.0987721 10.9754 0.274587C11.1512 0.450403 11.25 0.68886 11.25 0.9375C11.25 1.18614 11.1512 1.4246 10.9754 1.60041C10.7996 1.77623 10.5611 1.875 10.3125 1.875H2.8125ZM18.75 0.9375C18.75 0.68886 18.8488 0.450403 19.0246 0.274587C19.2004 0.0987721 19.4389 0 19.6875 0L27.1875 0C27.9334 0 28.6488 0.296316 29.1762 0.823762C29.7037 1.35121 30 2.06658 30 2.8125V10.3125C30 10.5611 29.9012 10.7996 29.7254 10.9754C29.5496 11.1512 29.3111 11.25 29.0625 11.25C28.8139 11.25 28.5754 11.1512 28.3996 10.9754C28.2238 10.7996 28.125 10.5611 28.125 10.3125V2.8125C28.125 2.56386 28.0262 2.3254 27.8504 2.14959C27.6746 1.97377 27.4361 1.875 27.1875 1.875H19.6875C19.4389 1.875 19.2004 1.77623 19.0246 1.60041C18.8488 1.4246 18.75 1.18614 18.75 0.9375ZM0.9375 18.75C1.18614 18.75 1.4246 18.8488 1.60041 19.0246C1.77623 19.2004 1.875 19.4389 1.875 19.6875V27.1875C1.875 27.4361 1.97377 27.6746 2.14959 27.8504C2.3254 28.0262 2.56386 28.125 2.8125 28.125H10.3125C10.5611 28.125 10.7996 28.2238 10.9754 28.3996C11.1512 28.5754 11.25 28.8139 11.25 29.0625C11.25 29.3111 11.1512 29.5496 10.9754 29.7254C10.7996 29.9012 10.5611 30 10.3125 30H2.8125C2.06658 30 1.35121 29.7037 0.823762 29.1762C0.296316 28.6488 0 27.9334 0 27.1875L0 19.6875C0 19.4389 0.0987721 19.2004 0.274587 19.0246C0.450403 18.8488 0.68886 18.75 0.9375 18.75ZM29.0625 18.75C29.3111 18.75 29.5496 18.8488 29.7254 19.0246C29.9012 19.2004 30 19.4389 30 19.6875V27.1875C30 27.9334 29.7037 28.6488 29.1762 29.1762C28.6488 29.7037 27.9334 30 27.1875 30H19.6875C19.4389 30 19.2004 29.9012 19.0246 29.7254C18.8488 29.5496 18.75 29.3111 18.75 29.0625C18.75 28.8139 18.8488 28.5754 19.0246 28.3996C19.2004 28.2238 19.4389 28.125 19.6875 28.125H27.1875C27.4361 28.125 27.6746 28.0262 27.8504 27.8504C28.0262 27.6746 28.125 27.4361 28.125 27.1875V19.6875C28.125 19.4389 28.2238 19.2004 28.3996 19.0246C28.5754 18.8488 28.8139 18.75 29.0625 18.75Z" fill="white"/>
</g>
<defs>
<clipPath id="clip0_1192_2448">
<rect width="30" height="30" fill="white"/>
</clipPath>
</defs>
</svg>
