<svg width="30" height="30" viewBox="0 0 30 30" fill="none" xmlns="http://www.w3.org/2000/svg">
<g clip-path="url(#clip0_1192_2784)">
<path d="M10.3125 0C10.5611 0 10.7996 0.0987721 10.9754 0.274587C11.1512 0.450403 11.25 0.68886 11.25 0.9375V8.4375C11.25 9.18342 10.9537 9.89879 10.4262 10.4262C9.89879 10.9537 9.18342 11.25 8.4375 11.25H0.9375C0.68886 11.25 0.450403 11.1512 0.274587 10.9754C0.0987721 10.7996 0 10.5611 0 10.3125C0 10.0639 0.0987721 9.8254 0.274587 9.64959C0.450403 9.47377 0.68886 9.375 0.9375 9.375H8.4375C8.68614 9.375 8.9246 9.27623 9.10041 9.10041C9.27623 8.9246 9.375 8.68614 9.375 8.4375V0.9375C9.375 0.68886 9.47377 0.450403 9.64959 0.274587C9.8254 0.0987721 10.0639 0 10.3125 0V0ZM19.6875 0C19.9361 0 20.1746 0.0987721 20.3504 0.274587C20.5262 0.450403 20.625 0.68886 20.625 0.9375V8.4375C20.625 8.68614 20.7238 8.9246 20.8996 9.10041C21.0754 9.27623 21.3139 9.375 21.5625 9.375H29.0625C29.3111 9.375 29.5496 9.47377 29.7254 9.64959C29.9012 9.8254 30 10.0639 30 10.3125C30 10.5611 29.9012 10.7996 29.7254 10.9754C29.5496 11.1512 29.3111 11.25 29.0625 11.25H21.5625C20.8166 11.25 20.1012 10.9537 19.5738 10.4262C19.0463 9.89879 18.75 9.18342 18.75 8.4375V0.9375C18.75 0.68886 18.8488 0.450403 19.0246 0.274587C19.2004 0.0987721 19.4389 0 19.6875 0V0ZM0 19.6875C0 19.4389 0.0987721 19.2004 0.274587 19.0246C0.450403 18.8488 0.68886 18.75 0.9375 18.75H8.4375C9.18342 18.75 9.89879 19.0463 10.4262 19.5738C10.9537 20.1012 11.25 20.8166 11.25 21.5625V29.0625C11.25 29.3111 11.1512 29.5496 10.9754 29.7254C10.7996 29.9012 10.5611 30 10.3125 30C10.0639 30 9.8254 29.9012 9.64959 29.7254C9.47377 29.5496 9.375 29.3111 9.375 29.0625V21.5625C9.375 21.3139 9.27623 21.0754 9.10041 20.8996C8.9246 20.7238 8.68614 20.625 8.4375 20.625H0.9375C0.68886 20.625 0.450403 20.5262 0.274587 20.3504C0.0987721 20.1746 0 19.9361 0 19.6875ZM18.75 21.5625C18.75 20.8166 19.0463 20.1012 19.5738 19.5738C20.1012 19.0463 20.8166 18.75 21.5625 18.75H29.0625C29.3111 18.75 29.5496 18.8488 29.7254 19.0246C29.9012 19.2004 30 19.4389 30 19.6875C30 19.9361 29.9012 20.1746 29.7254 20.3504C29.5496 20.5262 29.3111 20.625 29.0625 20.625H21.5625C21.3139 20.625 21.0754 20.7238 20.8996 20.8996C20.7238 21.0754 20.625 21.3139 20.625 21.5625V29.0625C20.625 29.3111 20.5262 29.5496 20.3504 29.7254C20.1746 29.9012 19.9361 30 19.6875 30C19.4389 30 19.2004 29.9012 19.0246 29.7254C18.8488 29.5496 18.75 29.3111 18.75 29.0625V21.5625Z" fill="white"/>
</g>
<defs>
<clipPath id="clip0_1192_2784">
<rect width="30" height="30" fill="white"/>
</clipPath>
</defs>
</svg>
