<svg width="50" height="50" viewBox="0 0 50 50" fill="none" xmlns="http://www.w3.org/2000/svg">
<path d="M29.3875 22.9166H37.623C38.7605 22.9166 39.6813 23.85 39.6813 25C39.6813 26.15 38.7605 27.0833 37.623 27.0833H27.3292C27.0573 27.0817 26.7883 27.0265 26.5377 26.9209C26.2871 26.8153 26.0597 26.6614 25.8685 26.4679C25.6774 26.2745 25.5263 26.0453 25.4237 25.7934C25.3212 25.5415 25.2692 25.2719 25.2709 25V12.5C25.2709 11.35 26.1917 10.4166 27.3292 10.4166C28.4667 10.4166 29.3875 11.35 29.3875 12.5V22.9166ZM41.8875 10.2687C45.7622 14.1913 47.9294 19.4864 47.9167 25C47.9167 36.5062 38.7 45.8333 27.3292 45.8333V41.6666C36.425 41.6666 43.8 34.2041 43.8 25C43.8106 20.5886 42.0761 16.352 38.975 13.2145C37.4554 11.6682 35.6429 10.4401 33.6433 9.602C31.6438 8.76391 29.4973 8.33261 27.3292 8.33329C19.9459 8.33329 13.6959 13.25 11.6063 20.025L14.4229 18.102C14.6469 17.9492 14.899 17.8424 15.1645 17.7879C15.4301 17.7334 15.7039 17.7323 15.9699 17.7847C16.2359 17.837 16.4889 17.9418 16.714 18.0928C16.9392 18.2439 17.132 18.4382 17.2813 18.6645C17.5869 19.123 17.6998 19.6833 17.5957 20.2244C17.4917 20.7654 17.1789 21.2438 16.725 21.5562L9.89795 26.2166C9.67403 26.3695 9.42194 26.4763 9.15635 26.5308C8.89077 26.5853 8.61699 26.5864 8.35097 26.534C8.08495 26.4817 7.83201 26.3769 7.60687 26.2258C7.38174 26.0748 7.18891 25.8804 7.03961 25.6541L2.43753 18.7458C2.1313 18.2872 2.01797 17.7264 2.12208 17.1848C2.22618 16.6433 2.53933 16.1645 2.99378 15.852C3.21769 15.6992 3.46979 15.5924 3.73537 15.5379C4.00096 15.4834 4.27474 15.4823 4.54076 15.5347C4.80677 15.587 5.05972 15.6918 5.28485 15.8428C5.50999 15.9939 5.70282 16.1882 5.85211 16.4145L7.60003 19.0375C10.1313 10.4375 18.0063 4.16663 27.3292 4.16663C33.0146 4.16663 38.1625 6.49996 41.8875 10.2687Z" fill="#434289"/>
</svg>
