<svg width="30" height="30" viewBox="0 0 30 30" fill="none" xmlns="http://www.w3.org/2000/svg">
<path d="M16.8751 15C13.7755 15 11.045 12.0879 10.7814 8.50781C10.6466 6.69141 11.2091 5.00977 12.3634 3.77344C13.5001 2.54883 15.1056 1.875 16.8751 1.875C18.6329 1.875 20.2325 2.55469 21.3751 3.78516C22.5353 5.0332 23.0978 6.70898 22.963 8.50781C22.6993 12.0879 19.9689 15 16.8751 15ZM16.8751 3.75C15.6329 3.75 14.5138 4.21289 13.7345 5.05078C12.9435 5.90039 12.5567 7.08398 12.6505 8.37305C12.838 10.9512 14.7716 13.1309 16.8692 13.1309C18.9669 13.1309 20.9005 10.9512 21.088 8.37305C21.1817 7.10156 20.795 5.92383 19.9923 5.0625C19.2189 4.21289 18.1056 3.75 16.8751 3.75Z" fill="white"/>
<path d="M27.1871 28.125H6.56208C5.99958 28.125 5.48982 27.8906 5.13825 27.4687C4.7574 27.0117 4.60505 26.3906 4.72224 25.7637C5.21443 23.0215 6.7613 20.7188 9.18708 19.1016C11.3433 17.666 14.0738 16.875 16.8746 16.875C19.6754 16.875 22.4058 17.666 24.5621 19.1016C26.9879 20.7188 28.5347 23.0215 29.0269 25.7637C29.1383 26.3906 28.9859 27.0117 28.6051 27.4687C28.2535 27.8906 27.7496 28.125 27.1871 28.125ZM6.5738 26.25H27.1754C27.1871 26.2207 27.1929 26.1738 27.1812 26.0977C26.273 21.0527 21.1988 18.75 16.8746 18.75C12.5504 18.75 7.47615 21.0527 6.56794 26.0977C6.55622 26.1738 6.56208 26.2207 6.5738 26.25Z" fill="white"/>
<path d="M5.15625 17.8125C4.64062 17.8125 4.21875 17.3906 4.21875 16.875V10.3125C4.21875 9.79688 4.64062 9.375 5.15625 9.375C5.67188 9.375 6.09375 9.79688 6.09375 10.3125V16.875C6.09375 17.3906 5.67188 17.8125 5.15625 17.8125Z" fill="white"/>
<path d="M8.4375 14.5312H1.875C1.35938 14.5312 0.9375 14.1094 0.9375 13.5938C0.9375 13.0781 1.35938 12.6562 1.875 12.6562H8.4375C8.95312 12.6562 9.375 13.0781 9.375 13.5938C9.375 14.1094 8.95312 14.5312 8.4375 14.5312Z" fill="white"/>
</svg>
