<svg width="240" height="80" viewBox="0 0 240 80" fill="none" xmlns="http://www.w3.org/2000/svg">
<circle cx="40" cy="40" r="40" fill="url(#paint0_radial_766_5909)"/>
<path d="M95.12 33.62C95.7867 33.62 96.2933 33.7 96.64 33.86C96.9867 34.0067 97.2933 34.1733 97.56 34.36C97.72 34.4533 97.8467 34.5267 97.94 34.58C98.0467 34.62 98.1467 34.64 98.24 34.64C98.3733 34.64 98.4667 34.5667 98.52 34.42C98.5867 34.2733 98.64 34.0533 98.68 33.76H99.14C99.1267 33.9867 99.1067 34.26 99.08 34.58C99.0667 34.8867 99.0533 35.3 99.04 35.82C99.04 36.3267 99.04 37 99.04 37.84H98.58C98.54 37.2 98.4 36.5867 98.16 36C97.92 35.4133 97.5667 34.9333 97.1 34.56C96.6467 34.1867 96.0467 34 95.3 34C94.5933 34 94.0067 34.2133 93.54 34.64C93.0867 35.0667 92.86 35.6267 92.86 36.32C92.86 36.92 93.0133 37.4267 93.32 37.84C93.6267 38.24 94.0333 38.6067 94.54 38.94C95.06 39.26 95.62 39.6067 96.22 39.98C96.9133 40.4067 97.5267 40.8333 98.06 41.26C98.6067 41.6733 99.0333 42.1333 99.34 42.64C99.66 43.1467 99.82 43.76 99.82 44.48C99.82 45.3333 99.6267 46.04 99.24 46.6C98.8533 47.16 98.34 47.58 97.7 47.86C97.06 48.14 96.3533 48.28 95.58 48.28C94.8733 48.28 94.3133 48.2 93.9 48.04C93.4867 47.88 93.1333 47.7133 92.84 47.54C92.5467 47.3533 92.32 47.26 92.16 47.26C92.0267 47.26 91.9267 47.3333 91.86 47.48C91.8067 47.6267 91.76 47.8467 91.72 48.14H91.26C91.2867 47.86 91.3 47.5333 91.3 47.16C91.3133 46.7733 91.32 46.2733 91.32 45.66C91.3333 45.0467 91.34 44.2733 91.34 43.34H91.8C91.8533 44.14 92 44.8867 92.24 45.58C92.4933 46.2733 92.8733 46.8333 93.38 47.26C93.9 47.6733 94.5867 47.88 95.44 47.88C95.88 47.88 96.2933 47.7933 96.68 47.62C97.08 47.4333 97.4067 47.1467 97.66 46.76C97.9133 46.36 98.04 45.8467 98.04 45.22C98.04 44.6733 97.9067 44.2 97.64 43.8C97.3867 43.3867 97.0267 43.0067 96.56 42.66C96.0933 42.3 95.5467 41.9333 94.92 41.56C94.2933 41.1733 93.7067 40.78 93.16 40.38C92.6133 39.98 92.1733 39.52 91.84 39C91.52 38.4667 91.36 37.8267 91.36 37.08C91.36 36.2933 91.5333 35.6467 91.88 35.14C92.24 34.62 92.7067 34.24 93.28 34C93.8533 33.7467 94.4667 33.62 95.12 33.62ZM104.221 48.14C103.674 48.14 103.201 48.04 102.801 47.84C102.401 47.6267 102.094 47.3333 101.881 46.96C101.681 46.5867 101.581 46.1533 101.581 45.66C101.581 45.0733 101.714 44.5933 101.981 44.22C102.261 43.8467 102.614 43.5467 103.041 43.32C103.467 43.0933 103.914 42.9067 104.381 42.76C104.861 42.6 105.314 42.4533 105.741 42.32C106.167 42.1733 106.514 42.0067 106.781 41.82C107.061 41.6333 107.201 41.3867 107.201 41.08V39.84C107.201 39.28 107.114 38.8533 106.941 38.56C106.781 38.2667 106.561 38.0733 106.281 37.98C106.001 37.8733 105.687 37.82 105.341 37.82C105.007 37.82 104.647 37.8667 104.261 37.96C103.887 38.0533 103.587 38.2467 103.361 38.54C103.614 38.5933 103.834 38.7267 104.021 38.94C104.207 39.1533 104.301 39.4267 104.301 39.76C104.301 40.0933 104.194 40.36 103.981 40.56C103.767 40.7467 103.494 40.84 103.161 40.84C102.774 40.84 102.487 40.72 102.301 40.48C102.127 40.2267 102.041 39.9467 102.041 39.64C102.041 39.2933 102.127 39.0133 102.301 38.8C102.474 38.5867 102.694 38.3867 102.961 38.2C103.267 37.9867 103.661 37.8067 104.141 37.66C104.634 37.5 105.187 37.42 105.801 37.42C106.347 37.42 106.814 37.4867 107.201 37.62C107.587 37.74 107.907 37.92 108.161 38.16C108.507 38.48 108.734 38.8733 108.841 39.34C108.947 39.7933 109.001 40.34 109.001 40.98V46.54C109.001 46.8733 109.047 47.1133 109.141 47.26C109.247 47.4067 109.407 47.48 109.621 47.48C109.767 47.48 109.907 47.4467 110.041 47.38C110.174 47.3133 110.334 47.2067 110.521 47.06L110.741 47.4C110.461 47.6133 110.194 47.7933 109.941 47.94C109.687 48.0733 109.347 48.14 108.921 48.14C108.534 48.14 108.214 48.0733 107.961 47.94C107.707 47.8067 107.514 47.6133 107.381 47.36C107.261 47.0933 107.201 46.76 107.201 46.36C106.841 46.96 106.407 47.4067 105.901 47.7C105.407 47.9933 104.847 48.14 104.221 48.14ZM104.941 47.34C105.381 47.34 105.787 47.2133 106.161 46.96C106.547 46.7067 106.894 46.3267 107.201 45.82V41.9C107.041 42.1267 106.807 42.32 106.501 42.48C106.194 42.6267 105.861 42.78 105.501 42.94C105.141 43.0867 104.794 43.2667 104.461 43.48C104.141 43.68 103.874 43.9467 103.661 44.28C103.447 44.6133 103.341 45.0467 103.341 45.58C103.341 46.1133 103.481 46.54 103.761 46.86C104.054 47.18 104.447 47.34 104.941 47.34ZM116.342 37.42C116.768 37.42 117.182 37.4733 117.582 37.58C117.982 37.6867 118.342 37.8467 118.662 38.06C118.968 38.26 119.202 38.4933 119.362 38.76C119.522 39.0133 119.602 39.2933 119.602 39.6C119.602 39.96 119.502 40.24 119.302 40.44C119.102 40.6267 118.848 40.72 118.542 40.72C118.248 40.72 117.988 40.6333 117.762 40.46C117.548 40.2867 117.442 40.04 117.442 39.72C117.442 39.4133 117.522 39.1667 117.682 38.98C117.855 38.7933 118.055 38.6733 118.282 38.62C118.148 38.38 117.908 38.18 117.562 38.02C117.228 37.86 116.868 37.78 116.482 37.78C116.148 37.78 115.815 37.86 115.482 38.02C115.148 38.18 114.842 38.4467 114.562 38.82C114.282 39.18 114.055 39.68 113.882 40.32C113.708 40.9467 113.622 41.7333 113.622 42.68C113.622 43.8533 113.755 44.7867 114.022 45.48C114.288 46.1733 114.635 46.6733 115.062 46.98C115.502 47.2733 115.982 47.42 116.502 47.42C116.848 47.42 117.202 47.3533 117.562 47.22C117.922 47.0867 118.262 46.8733 118.582 46.58C118.902 46.2733 119.175 45.8667 119.402 45.36L119.782 45.5C119.648 45.9267 119.428 46.36 119.122 46.8C118.815 47.2267 118.415 47.58 117.922 47.86C117.428 48.14 116.822 48.28 116.102 48.28C115.275 48.28 114.528 48.0667 113.862 47.64C113.195 47.2133 112.662 46.6067 112.262 45.82C111.875 45.02 111.682 44.0733 111.682 42.98C111.682 41.8867 111.875 40.9267 112.262 40.1C112.662 39.26 113.215 38.6067 113.922 38.14C114.628 37.66 115.435 37.42 116.342 37.42ZM127.288 37.42C127.648 37.42 127.962 37.4933 128.228 37.64C128.508 37.7867 128.722 37.98 128.868 38.22C129.028 38.4467 129.108 38.7067 129.108 39C129.108 39.3333 129.002 39.6267 128.788 39.88C128.588 40.1333 128.315 40.26 127.968 40.26C127.688 40.26 127.442 40.1733 127.228 40C127.015 39.8133 126.908 39.5533 126.908 39.22C126.908 38.9667 126.975 38.7533 127.108 38.58C127.255 38.3933 127.415 38.2467 127.588 38.14C127.495 38.0067 127.355 37.94 127.168 37.94C126.755 37.94 126.375 38.0667 126.028 38.32C125.682 38.56 125.388 38.8733 125.148 39.26C124.908 39.6467 124.722 40.06 124.588 40.5C124.455 40.9267 124.388 41.3267 124.388 41.7V45.94C124.388 46.5933 124.575 47.0333 124.948 47.26C125.335 47.4733 125.855 47.58 126.508 47.58V48C126.202 47.9867 125.768 47.9733 125.208 47.96C124.648 47.9333 124.055 47.92 123.428 47.92C122.975 47.92 122.522 47.9333 122.068 47.96C121.628 47.9733 121.295 47.9867 121.068 48V47.58C121.615 47.58 122.002 47.48 122.228 47.28C122.468 47.08 122.588 46.7 122.588 46.14V39.88C122.588 39.28 122.482 38.84 122.268 38.56C122.055 38.2667 121.655 38.12 121.068 38.12V37.7C121.495 37.74 121.908 37.76 122.308 37.76C122.695 37.76 123.062 37.74 123.408 37.7C123.768 37.6467 124.095 37.5733 124.388 37.48V39.98C124.535 39.5933 124.742 39.2067 125.008 38.82C125.288 38.42 125.622 38.0867 126.008 37.82C126.395 37.5533 126.822 37.42 127.288 37.42ZM134.444 37.42C135.617 37.42 136.531 37.78 137.184 38.5C137.851 39.2067 138.184 40.3133 138.184 41.82H131.124L131.104 41.44H136.264C136.291 40.7867 136.237 40.1867 136.104 39.64C135.971 39.08 135.757 38.6333 135.464 38.3C135.184 37.9667 134.817 37.8 134.364 37.8C133.751 37.8 133.204 38.1067 132.724 38.72C132.257 39.3333 131.977 40.3067 131.884 41.64L131.944 41.72C131.917 41.92 131.897 42.14 131.884 42.38C131.871 42.62 131.864 42.86 131.864 43.1C131.864 44.0067 132.011 44.7867 132.304 45.44C132.597 46.0933 132.977 46.5933 133.444 46.94C133.924 47.2733 134.417 47.44 134.924 47.44C135.324 47.44 135.704 47.38 136.064 47.26C136.424 47.1267 136.757 46.9133 137.064 46.62C137.371 46.3267 137.637 45.9333 137.864 45.44L138.264 45.6C138.117 46.04 137.877 46.4667 137.544 46.88C137.211 47.2933 136.791 47.6333 136.284 47.9C135.777 48.1533 135.191 48.28 134.524 48.28C133.564 48.28 132.737 48.06 132.044 47.62C131.364 47.18 130.837 46.5733 130.464 45.8C130.104 45.0133 129.924 44.1133 129.924 43.1C129.924 41.9267 130.111 40.92 130.484 40.08C130.857 39.2267 131.384 38.5733 132.064 38.12C132.744 37.6533 133.537 37.42 134.444 37.42ZM148.801 32.32V45.82C148.801 46.42 148.908 46.8667 149.121 47.16C149.348 47.44 149.748 47.58 150.321 47.58V48C149.908 47.96 149.494 47.94 149.081 47.94C148.694 47.94 148.321 47.96 147.961 48C147.614 48.04 147.294 48.1133 147.001 48.22V34.72C147.001 34.12 146.894 33.68 146.681 33.4C146.468 33.1067 146.068 32.96 145.481 32.96V32.54C145.908 32.58 146.321 32.6 146.721 32.6C147.108 32.6 147.474 32.58 147.821 32.54C148.181 32.4867 148.508 32.4133 148.801 32.32ZM144.601 37.42C145.188 37.42 145.734 37.56 146.241 37.84C146.761 38.12 147.108 38.6 147.281 39.28L147.021 39.48C146.834 38.92 146.541 38.5133 146.141 38.26C145.754 38.0067 145.294 37.88 144.761 37.88C143.974 37.88 143.314 38.2867 142.781 39.1C142.261 39.9133 142.008 41.1667 142.021 42.86C142.021 43.94 142.121 44.84 142.321 45.56C142.534 46.2667 142.841 46.8 143.241 47.16C143.654 47.5067 144.154 47.68 144.741 47.68C145.301 47.68 145.808 47.44 146.261 46.96C146.714 46.48 146.988 45.7733 147.081 44.84L147.321 45.12C147.214 46.1333 146.888 46.9133 146.341 47.46C145.808 48.0067 145.081 48.28 144.161 48.28C143.334 48.28 142.608 48.08 141.981 47.68C141.368 47.28 140.894 46.68 140.561 45.88C140.241 45.08 140.081 44.0733 140.081 42.86C140.081 41.6467 140.288 40.64 140.701 39.84C141.128 39.0267 141.681 38.42 142.361 38.02C143.054 37.62 143.801 37.42 144.601 37.42ZM160.843 33.62C161.509 33.62 162.016 33.7 162.363 33.86C162.709 34.0067 163.016 34.1733 163.283 34.36C163.443 34.4533 163.569 34.5267 163.663 34.58C163.769 34.62 163.869 34.64 163.963 34.64C164.096 34.64 164.189 34.5667 164.243 34.42C164.309 34.2733 164.363 34.0533 164.403 33.76H164.863C164.849 33.9867 164.829 34.26 164.803 34.58C164.789 34.8867 164.776 35.3 164.763 35.82C164.763 36.3267 164.763 37 164.763 37.84H164.303C164.263 37.2 164.123 36.5867 163.883 36C163.643 35.4133 163.289 34.9333 162.823 34.56C162.369 34.1867 161.769 34 161.023 34C160.316 34 159.729 34.2133 159.263 34.64C158.809 35.0667 158.583 35.6267 158.583 36.32C158.583 36.92 158.736 37.4267 159.043 37.84C159.349 38.24 159.756 38.6067 160.263 38.94C160.783 39.26 161.343 39.6067 161.943 39.98C162.636 40.4067 163.249 40.8333 163.783 41.26C164.329 41.6733 164.756 42.1333 165.063 42.64C165.383 43.1467 165.543 43.76 165.543 44.48C165.543 45.3333 165.349 46.04 164.963 46.6C164.576 47.16 164.063 47.58 163.423 47.86C162.783 48.14 162.076 48.28 161.303 48.28C160.596 48.28 160.036 48.2 159.623 48.04C159.209 47.88 158.856 47.7133 158.563 47.54C158.269 47.3533 158.043 47.26 157.883 47.26C157.749 47.26 157.649 47.3333 157.583 47.48C157.529 47.6267 157.483 47.8467 157.443 48.14H156.983C157.009 47.86 157.023 47.5333 157.023 47.16C157.036 46.7733 157.043 46.2733 157.043 45.66C157.056 45.0467 157.063 44.2733 157.063 43.34H157.523C157.576 44.14 157.723 44.8867 157.963 45.58C158.216 46.2733 158.596 46.8333 159.103 47.26C159.623 47.6733 160.309 47.88 161.163 47.88C161.603 47.88 162.016 47.7933 162.403 47.62C162.803 47.4333 163.129 47.1467 163.383 46.76C163.636 46.36 163.763 45.8467 163.763 45.22C163.763 44.6733 163.629 44.2 163.363 43.8C163.109 43.3867 162.749 43.0067 162.283 42.66C161.816 42.3 161.269 41.9333 160.643 41.56C160.016 41.1733 159.429 40.78 158.883 40.38C158.336 39.98 157.896 39.52 157.563 39C157.243 38.4667 157.083 37.8267 157.083 37.08C157.083 36.2933 157.256 35.6467 157.603 35.14C157.963 34.62 158.429 34.24 159.003 34C159.576 33.7467 160.189 33.62 160.843 33.62ZM172.003 37.42C172.857 37.42 173.623 37.6067 174.303 37.98C174.983 38.3533 175.523 38.94 175.923 39.74C176.337 40.54 176.543 41.58 176.543 42.86C176.543 44.14 176.337 45.18 175.923 45.98C175.523 46.7667 174.983 47.3467 174.303 47.72C173.623 48.0933 172.857 48.28 172.003 48.28C171.163 48.28 170.397 48.0933 169.703 47.72C169.023 47.3467 168.477 46.7667 168.063 45.98C167.663 45.18 167.463 44.14 167.463 42.86C167.463 41.58 167.663 40.54 168.063 39.74C168.477 38.94 169.023 38.3533 169.703 37.98C170.397 37.6067 171.163 37.42 172.003 37.42ZM172.003 37.82C171.243 37.82 170.617 38.2133 170.123 39C169.643 39.7867 169.403 41.0733 169.403 42.86C169.403 44.6467 169.643 45.9333 170.123 46.72C170.617 47.4933 171.243 47.88 172.003 47.88C172.763 47.88 173.383 47.4933 173.863 46.72C174.357 45.9333 174.603 44.6467 174.603 42.86C174.603 41.0733 174.357 39.7867 173.863 39C173.383 38.2133 172.763 37.82 172.003 37.82ZM187.14 37.48V45.84C187.14 46.44 187.247 46.8867 187.46 47.18C187.687 47.46 188.087 47.6 188.66 47.6V48.02C188.247 47.98 187.834 47.96 187.42 47.96C187.034 47.96 186.66 47.98 186.3 48.02C185.954 48.06 185.634 48.1333 185.34 48.24V45.88C185.007 46.7467 184.534 47.3667 183.92 47.74C183.32 48.1 182.7 48.28 182.06 48.28C181.594 48.28 181.187 48.2133 180.84 48.08C180.494 47.9467 180.207 47.76 179.98 47.52C179.727 47.2533 179.554 46.9067 179.46 46.48C179.367 46.0533 179.32 45.5267 179.32 44.9V39.88C179.32 39.28 179.214 38.84 179 38.56C178.787 38.2667 178.387 38.12 177.8 38.12V37.7C178.227 37.74 178.64 37.76 179.04 37.76C179.427 37.76 179.794 37.74 180.14 37.7C180.5 37.6467 180.827 37.5733 181.12 37.48V45.34C181.12 45.7533 181.147 46.1333 181.2 46.48C181.254 46.8267 181.387 47.1067 181.6 47.32C181.814 47.5333 182.16 47.64 182.64 47.64C183.16 47.64 183.62 47.48 184.02 47.16C184.434 46.84 184.754 46.4067 184.98 45.86C185.22 45.3133 185.34 44.7 185.34 44.02V39.88C185.34 39.28 185.234 38.84 185.02 38.56C184.807 38.2667 184.407 38.12 183.82 38.12V37.7C184.247 37.74 184.66 37.76 185.06 37.76C185.447 37.76 185.814 37.74 186.16 37.7C186.52 37.6467 186.847 37.5733 187.14 37.48ZM196.402 37.42C196.908 37.42 197.328 37.4867 197.662 37.62C198.008 37.7533 198.295 37.94 198.522 38.18C198.775 38.4467 198.955 38.78 199.062 39.18C199.168 39.58 199.222 40.12 199.222 40.8V46.14C199.222 46.7 199.335 47.08 199.562 47.28C199.802 47.48 200.195 47.58 200.742 47.58V48C200.515 47.9867 200.168 47.9733 199.702 47.96C199.235 47.9333 198.782 47.92 198.342 47.92C197.902 47.92 197.468 47.9333 197.042 47.96C196.628 47.9733 196.315 47.9867 196.102 48V47.58C196.582 47.58 196.922 47.48 197.122 47.28C197.322 47.08 197.422 46.7 197.422 46.14V40.36C197.422 39.9467 197.388 39.5667 197.322 39.22C197.255 38.8733 197.102 38.5933 196.862 38.38C196.635 38.1667 196.282 38.06 195.802 38.06C195.242 38.06 194.748 38.22 194.322 38.54C193.908 38.86 193.582 39.3 193.342 39.86C193.115 40.4067 193.002 41.02 193.002 41.7V46.14C193.002 46.7 193.102 47.08 193.302 47.28C193.502 47.48 193.842 47.58 194.322 47.58V48C194.108 47.9867 193.788 47.9733 193.362 47.96C192.948 47.9333 192.522 47.92 192.082 47.92C191.642 47.92 191.188 47.9333 190.722 47.96C190.255 47.9733 189.908 47.9867 189.682 48V47.58C190.228 47.58 190.615 47.48 190.842 47.28C191.082 47.08 191.202 46.7 191.202 46.14V39.88C191.202 39.28 191.095 38.84 190.882 38.56C190.668 38.2667 190.268 38.12 189.682 38.12V37.7C190.108 37.74 190.522 37.76 190.922 37.76C191.308 37.76 191.675 37.74 192.022 37.7C192.382 37.6467 192.708 37.5733 193.002 37.48V39.84C193.348 38.9333 193.828 38.3067 194.442 37.96C195.068 37.6 195.722 37.42 196.402 37.42ZM210.715 32.32V45.82C210.715 46.42 210.822 46.8667 211.035 47.16C211.262 47.44 211.662 47.58 212.235 47.58V48C211.822 47.96 211.408 47.94 210.995 47.94C210.608 47.94 210.235 47.96 209.875 48C209.528 48.04 209.208 48.1133 208.915 48.22V34.72C208.915 34.12 208.808 33.68 208.595 33.4C208.382 33.1067 207.982 32.96 207.395 32.96V32.54C207.822 32.58 208.235 32.6 208.635 32.6C209.022 32.6 209.388 32.58 209.735 32.54C210.095 32.4867 210.422 32.4133 210.715 32.32ZM206.515 37.42C207.102 37.42 207.648 37.56 208.155 37.84C208.675 38.12 209.022 38.6 209.195 39.28L208.935 39.48C208.748 38.92 208.455 38.5133 208.055 38.26C207.668 38.0067 207.208 37.88 206.675 37.88C205.888 37.88 205.228 38.2867 204.695 39.1C204.175 39.9133 203.922 41.1667 203.935 42.86C203.935 43.94 204.035 44.84 204.235 45.56C204.448 46.2667 204.755 46.8 205.155 47.16C205.568 47.5067 206.068 47.68 206.655 47.68C207.215 47.68 207.722 47.44 208.175 46.96C208.628 46.48 208.902 45.7733 208.995 44.84L209.235 45.12C209.128 46.1333 208.802 46.9133 208.255 47.46C207.722 48.0067 206.995 48.28 206.075 48.28C205.248 48.28 204.522 48.08 203.895 47.68C203.282 47.28 202.808 46.68 202.475 45.88C202.155 45.08 201.995 44.0733 201.995 42.86C201.995 41.6467 202.202 40.64 202.615 39.84C203.042 39.0267 203.595 38.42 204.275 38.02C204.968 37.62 205.715 37.42 206.515 37.42Z" fill="white"/>
<defs>
<radialGradient id="paint0_radial_766_5909" cx="0" cy="0" r="1" gradientUnits="userSpaceOnUse" gradientTransform="translate(40 40) rotate(90) scale(40)">
<stop stop-color="#434289"/>
<stop offset="0.0001"/>
<stop offset="0.140625" stop-color="#687550"/>
<stop offset="0.3125" stop-color="#A3C4A3"/>
<stop offset="0.46875" stop-color="#434289"/>
<stop offset="0.6875" stop-color="#A3C4A3"/>
<stop offset="0.8125" stop-color="#ABC0AD"/>
<stop offset="1" stop-color="white" stop-opacity="0.3"/>
</radialGradient>
</defs>
</svg>
